<?xml version="1.0" encoding="utf-8"?>
<!-- Generator: Adobe Illustrator 19.1.0, SVG Export Plug-In . SVG Version: 6.00 Build 0)  -->
<svg version="1.1" id="Layer_1" xmlns="http://www.w3.org/2000/svg" xmlns:xlink="http://www.w3.org/1999/xlink" x="0px" y="0px"
	 viewBox="-399 288 100 100" style="enable-background:new -399 288 100 100;" xml:space="preserve">
<path d="M-304.1,342.1h-8.2c-2.3,0-4.1-1.8-4.1-4.1s1.8-4.1,4.1-4.1h8.2c2.3,0,4.1,1.8,4.1,4.1S-301.8,342.1-304.1,342.1z
	 M-320.1,314.9c-1.6,1.6-4.2,1.6-5.8,0c-1.6-1.6-1.6-4.2,0-5.8l5.8-5.8c1.6-1.6,4.2-1.6,5.8,0c1.6,1.6,1.6,4.2,0,5.8L-320.1,314.9z
	 M-349,362.5c-13.5,0-24.5-11-24.5-24.5c0-13.5,11-24.5,24.5-24.5c13.5,0,24.5,11,24.5,24.5C-324.5,351.5-335.5,362.5-349,362.5z
	 M-349,321.7c-9,0-16.3,7.3-16.3,16.3c0,9,7.3,16.3,16.3,16.3s16.3-7.3,16.3-16.3C-332.7,329-340,321.7-349,321.7z M-349,305.3
	c-2.3,0-4.1-1.8-4.1-4.1v-8.2c0-2.3,1.8-4.1,4.1-4.1c2.3,0,4.1,1.8,4.1,4.1v8.2C-344.9,303.5-346.7,305.3-349,305.3z M-377.9,314.9
	l-5.8-5.8c-1.6-1.6-1.6-4.2,0-5.8s4.2-1.6,5.8,0l5.8,5.8c1.6,1.6,1.6,4.2,0,5.8S-376.3,316.5-377.9,314.9z M-381.7,338
	c0,2.3-1.8,4.1-4.1,4.1h-8.2c-2.3,0-4.1-1.8-4.1-4.1s1.8-4.1,4.1-4.1h8.2C-383.5,333.9-381.7,335.7-381.7,338z M-377.9,361.1
	c1.6-1.6,4.2-1.6,5.8,0c1.6,1.6,1.6,4.2,0,5.8l-5.8,5.8c-1.6,1.6-4.2,1.6-5.8,0c-1.6-1.6-1.6-4.2,0-5.8L-377.9,361.1z M-349,370.7
	c2.3,0,4.1,1.8,4.1,4.1v8.2c0,2.3-1.8,4.1-4.1,4.1c-2.3,0-4.1-1.8-4.1-4.1v-8.2C-353.1,372.5-351.3,370.7-349,370.7z M-320.1,361.1
	l5.8,5.8c1.6,1.6,1.6,4.2,0,5.8c-1.6,1.6-4.2,1.6-5.8,0l-5.8-5.8c-1.6-1.6-1.6-4.2,0-5.8C-324.3,359.5-321.7,359.5-320.1,361.1z"/>
</svg>
