<?xml version="1.0" encoding="utf-8"?>
<!-- Generator: Adobe Illustrator 19.1.0, SVG Export Plug-In . SVG Version: 6.00 Build 0)  -->
<svg version="1.1" id="Layer_1" xmlns="http://www.w3.org/2000/svg" xmlns:xlink="http://www.w3.org/1999/xlink" x="0px" y="0px"
	 viewBox="-399 288 100 100" style="enable-background:new -399 288 100 100;" xml:space="preserve">
<path d="M-302.7,341.7h-7.4c-2,0-3.7-1.7-3.7-3.7c0-2,1.7-3.7,3.7-3.7h7.4c2,0,3.7,1.7,3.7,3.7C-299,340-300.7,341.7-302.7,341.7z
	 M-317.3,317c-1.4,1.4-3.8,1.4-5.2,0c-1.4-1.4-1.4-3.8,0-5.2l5.2-5.2c1.4-1.4,3.8-1.4,5.2,0c1.4,1.4,1.4,3.8,0,5.2L-317.3,317z
	 M-322.7,346L-322.7,346c3.2,3.9,5.2,8.8,5.2,14.3c0,12.3-9.9,22.2-22.2,22.2c-5.1,0-23.7,0-29.6,0c-16.4,0-29.6-13.3-29.6-29.6
	s13.3-29.6,29.6-29.6c2.9,0,5.7,0.4,8.4,1.2c4.1-5.2,10.4-8.6,17.5-8.6c12.3,0,22.2,10,22.2,22.2
	C-321.2,340.8-321.8,343.5-322.7,346z M-391.6,352.8c0,12.3,9.9,22.2,22.2,22.2c6.7,0,24,0,29.6,0c8.2,0,14.8-6.6,14.8-14.8
	c0-8.2-6.6-14.8-14.8-14.8c-3,0-5.7,0.9-8,2.4c-2.3-9.8-11.1-17.2-21.6-17.2C-381.6,330.6-391.6,340.5-391.6,352.8z M-343.4,323.2
	c-4.1,0-7.8,1.7-10.5,4.4c4.3,2.7,7.9,6.4,10.4,10.8c1.2-0.2,2.5-0.4,3.8-0.4c3.9,0,7.6,1,10.8,2.8l0,0c0.2-0.9,0.3-1.9,0.3-2.8
	C-328.6,329.8-335.3,323.2-343.4,323.2z M-343.4,308.4c-2,0-3.7-1.7-3.7-3.7v-7.4c0-2,1.7-3.7,3.7-3.7c2,0,3.7,1.7,3.7,3.7v7.4
	C-339.7,306.7-341.4,308.4-343.4,308.4z M-369.6,317l-5.2-5.2c-1.4-1.4-1.4-3.8,0-5.2c1.4-1.4,3.8-1.4,5.2,0l5.2,5.2
	c1.4,1.4,1.4,3.8,0,5.2C-365.8,318.5-368.2,318.5-369.6,317z"/>
</svg>
