<?xml version="1.0" encoding="utf-8"?>
<!-- Generator: Adobe Illustrator 19.1.0, SVG Export Plug-In . SVG Version: 6.00 Build 0)  -->
<svg version="1.1" id="Layer_1" xmlns="http://www.w3.org/2000/svg" xmlns:xlink="http://www.w3.org/1999/xlink" x="0px" y="0px"
	 viewBox="-399 288 100 100" style="enable-background:new -399 288 100 100;" xml:space="preserve">
<path d="M-362.1,372.5c-19.3,0-34.9-15.6-34.9-34.9c0-19.3,15.6-34.9,34.9-34.9c13.1,0,24.5,7.2,30.5,17.9c1.4-0.2,2.9-0.4,4.4-0.4
	c14.5,0,26.2,11.7,26.2,26.2c0,14.5-11.7,26.2-26.2,26.2C-333.3,372.5-355.2,372.5-362.1,372.5z M-327.2,363.8
	c9.6,0,17.5-7.8,17.5-17.5c0-9.6-7.8-17.5-17.5-17.5c-3.5,0-6.7,1-9.5,2.8c-2.7-11.6-13-20.3-25.5-20.3c-14.5,0-26.2,11.7-26.2,26.2
	c0,14.5,11.7,26.2,26.2,26.2C-354.3,363.8-333.8,363.8-327.2,363.8z"/>
</svg>
