<?xml version="1.0" encoding="utf-8"?>
<!-- Generator: Adobe Illustrator 19.1.0, SVG Export Plug-In . SVG Version: 6.00 Build 0)  -->
<svg version="1.1" id="Layer_1" xmlns="http://www.w3.org/2000/svg" xmlns:xlink="http://www.w3.org/1999/xlink" x="0px" y="0px"
	 viewBox="-399 288 100 100" style="enable-background:new -399 288 100 100;" xml:space="preserve">
<path d="M-362.7,374c-20.1,0-36.4-16.3-36.4-36.4s16.3-36.4,36.4-36.4c13.6,0,25.5,7.5,31.7,18.6c1.5-0.3,3-0.5,4.6-0.5
	c15.1,0,27.3,12.2,27.3,27.3c0,15.1-12.2,27.3-27.3,27.3C-332.6,374-355.4,374-362.7,374z M-326.3,364.9c10,0,18.2-8.1,18.2-18.2
	c0-10-8.1-18.2-18.2-18.2c-3.6,0-7,1.1-9.8,2.9c-2.8-12.1-13.6-21.1-26.5-21.1c-15.1,0-27.3,12.2-27.3,27.3
	c0,15.1,12.2,27.3,27.3,27.3C-354.5,364.9-333.2,364.9-326.3,364.9z"/>
</svg>
