<?xml version="1.0" encoding="utf-8"?>
<!-- Generator: Adobe Illustrator 19.1.0, SVG Export Plug-In . SVG Version: 6.00 Build 0)  -->
<svg version="1.1" id="Layer_1" xmlns="http://www.w3.org/2000/svg" xmlns:xlink="http://www.w3.org/1999/xlink" x="0px" y="0px"
	 viewBox="-399 288 100 100" style="enable-background:new -399 288 100 100;" xml:space="preserve">
<g>
	<g>
		<path d="M-326.7,308.5c-1.6,0-3,0.2-4.5,0.5c-6.1-10.9-17.7-18.3-31.1-18.3c-19.7,0-35.6,16-35.6,35.6c0,13.3,7.4,25,18.2,31.1
			c0.6-2.8,2-5.5,4.2-7.7l0.1-0.1c-8.1-4.6-13.6-13.3-13.6-23.3c0-14.8,12-26.7,26.7-26.7c12.7,0,23.2,8.9,26,20.7
			c2.8-1.8,6.1-2.9,9.7-2.9c9.8,0,17.8,8,17.8,17.8c0,7.7-4.9,14.2-11.7,16.7c1.8,2.6,2.7,5.5,2.7,8.5c10.4-3.7,17.9-13.5,17.9-25.2
			C-300,320.5-312,308.5-326.7,308.5z M-364.6,351.3l-4.7,4.7c-2.6,2.6-2.6,6.8,0,9.4c2.6,2.6,6.8,2.6,9.4,0c2.6-2.6,2.6-6.8,0-9.4
			L-364.6,351.3z M-349,369.1l-4.7,4.7c-2.6,2.6-2.6,6.8,0,9.4c2.6,2.6,6.8,2.6,9.4,0c2.6-2.6,2.6-6.8,0-9.4L-349,369.1z
			 M-333.4,351.3l-4.7,4.7c-2.6,2.6-2.6,6.8,0,9.4c2.6,2.6,6.8,2.6,9.4,0c2.6-2.6,2.6-6.8,0-9.4L-333.4,351.3z"/>
	</g>
</g>
</svg>
