<?xml version="1.0" encoding="utf-8"?>
<!-- Generator: Adobe Illustrator 19.1.0, SVG Export Plug-In . SVG Version: 6.00 Build 0)  -->
<svg version="1.1" id="Layer_1" xmlns="http://www.w3.org/2000/svg" xmlns:xlink="http://www.w3.org/1999/xlink" x="0px" y="0px"
	 viewBox="-399 288 100 100" style="enable-background:new -399 288 100 100;" xml:space="preserve">
<path d="M-308.8,331.5h-6.6c-1.8,0-3.3-1.5-3.3-3.3c0-1.8,1.5-3.3,3.3-3.3h6.6c1.8,0,3.3,1.5,3.3,3.3
	C-305.5,330.1-307,331.5-308.8,331.5z M-321.8,309.6c-1.3,1.3-3.4,1.3-4.7,0c-1.3-1.3-1.3-3.4,0-4.7l4.7-4.7c1.3-1.3,3.4-1.3,4.7,0
	c1.3,1.3,1.3,3.4,0,4.7L-321.8,309.6z M-326.6,335.3L-326.6,335.3c2.9,3.4,4.6,7.9,4.6,12.7l0,0c0,8.6-5.5,15.9-13.2,18.7
	c0-2.2-0.7-4.4-2-6.3c5-1.9,8.6-6.7,8.6-12.4c0-7.3-5.9-13.2-13.2-13.2c-2.6,0-5.1,0.8-7.2,2.1c-2-8.8-9.9-15.3-19.2-15.3
	c-10.9,0-19.8,8.9-19.8,19.8c0,2.3,0.4,4.5,1.2,6.6h0c1.6,4.5,4.8,8.3,8.9,10.6l-0.1,0.1c-1.6,1.6-2.6,3.6-3.1,5.7
	c-6.2-3.5-10.8-9.4-12.6-16.4l0,0c-0.5-2.1-0.9-4.3-0.9-6.6c0-14.6,11.8-26.4,26.4-26.4c2.6,0,5.1,0.4,7.5,1.1
	c3.6-4.7,9.3-7.7,15.6-7.7c10.9,0,19.8,8.9,19.8,19.8C-325.3,330.7-325.8,333.1-326.6,335.3z M-345.1,315c-3.7,0-7,1.5-9.3,3.9
	c3.9,2.4,7.1,5.7,9.3,9.7c1.1-0.2,2.2-0.3,3.4-0.3c3.5,0,6.8,0.9,9.7,2.5l0,0c0.2-0.8,0.2-1.7,0.2-2.5
	C-331.9,321-337.8,315-345.1,315z M-345.1,301.8c-1.8,0-3.3-1.5-3.3-3.3v-6.6c0-1.8,1.5-3.3,3.3-3.3s3.3,1.5,3.3,3.3v6.6
	C-341.8,300.4-343.3,301.8-345.1,301.8z M-368.4,309.6l-4.7-4.7c-1.3-1.3-1.3-3.4,0-4.7c1.3-1.3,3.4-1.3,4.7,0l4.7,4.7
	c1.3,1.3,1.3,3.4,0,4.7C-365.1,310.9-367.2,310.9-368.4,309.6z M-369.9,359.9l3.5,3.5c1.9,1.9,1.9,5.1,0,7c-1.9,1.9-5.1,1.9-7,0
	c-1.9-1.9-1.9-5.1,0-7L-369.9,359.9z M-358.3,373.1l3.5,3.5c1.9,1.9,1.9,5.1,0,7c-1.9,1.9-5.1,1.9-7,0c-1.9-1.9-1.9-5.1,0-7
	L-358.3,373.1z M-346.8,359.9l3.5,3.5c1.9,1.9,1.9,5.1,0,7c-1.9,1.9-5.1,1.9-7,0c-1.9-1.9-1.9-5.1,0-7L-346.8,359.9z"/>
</svg>
