<?xml version="1.0" encoding="utf-8"?>
<!-- Generator: Adobe Illustrator 19.1.0, SVG Export Plug-In . SVG Version: 6.00 Build 0)  -->
<svg version="1.1" id="Layer_1" xmlns="http://www.w3.org/2000/svg" xmlns:xlink="http://www.w3.org/1999/xlink" x="0px" y="0px"
	 viewBox="-399 288 100 100" style="enable-background:new -399 288 100 100;" xml:space="preserve">
<path d="M-327.2,357.5c-0.6,0-1.4,0-2.3,0l7.8-9.6c6.9-2.3,12-8.8,12-16.6c0-9.6-7.8-17.5-17.5-17.5c-3.5,0-6.7,1-9.5,2.8
	c-2.7-11.6-13-20.3-25.5-20.3c-14.5,0-26.2,11.7-26.2,26.2c0,11.9,7.9,21.9,18.8,25.1l-2.9,8.2c-14.2-4.4-24.6-17.7-24.6-33.3
	c0-19.3,15.6-34.9,34.9-34.9c13.1,0,24.5,7.2,30.5,17.9c1.4-0.2,2.9-0.4,4.4-0.4c14.5,0,26.2,11.7,26.2,26.2
	S-312.7,357.5-327.2,357.5z M-353.4,326.9h21.8l-13.1,21.8h15.3l-28.4,34.9l7.9-26.2h-14.4L-353.4,326.9z"/>
</svg>
