<?xml version="1.0" encoding="utf-8"?>
<!-- Generator: Adobe Illustrator 19.1.0, SVG Export Plug-In . SVG Version: 6.00 Build 0)  -->
<svg version="1.1" id="Layer_1" xmlns="http://www.w3.org/2000/svg" xmlns:xlink="http://www.w3.org/1999/xlink" x="0px" y="0px"
	 viewBox="-399 288 100 100" style="enable-background:new -399 288 100 100;" xml:space="preserve">
<path d="M-326.7,360.3c-0.6,0-1.4,0-2.4,0l8-9.8c7.1-2.4,12.2-9,12.2-16.9c0-9.8-8-17.8-17.8-17.8c-3.6,0-6.9,1.1-9.7,2.9
	c-2.7-11.8-13.3-20.7-26-20.7c-14.8,0-26.7,12-26.7,26.7c0,12.1,8.1,22.4,19.2,25.6l-3,8.4c-14.5-4.5-25.1-18-25.1-34
	c0-19.7,16-35.6,35.6-35.6c13.4,0,25,7.4,31.1,18.3c1.5-0.3,3-0.5,4.5-0.5c14.8,0,26.7,12,26.7,26.7
	C-300,348.3-312,360.3-326.7,360.3z M-353.5,329.1h22.3l-13.4,22.3h15.6l-29,35.6l8-26.7h-14.7L-353.5,329.1z"/>
</svg>
