<?xml version="1.0" encoding="utf-8"?>
<!-- Generator: Adobe Illustrator 19.1.0, SVG Export Plug-In . SVG Version: 6.00 Build 0)  -->
<svg version="1.1" id="Layer_1" xmlns="http://www.w3.org/2000/svg" xmlns:xlink="http://www.w3.org/1999/xlink" x="0px" y="0px"
	 viewBox="-399 288 100 100" style="enable-background:new -399 288 100 100;" xml:space="preserve">
<path d="M-317.5,367.1v-9.9c5.4-3.1,9-8.9,9-15.6c0-9.9-8.1-18-18-18c-3.6,0-6.9,1.1-9.7,2.9c-2.8-12-13.4-20.9-26.2-20.9
	c-14.9,0-27,12.1-27,27c0,8,3.5,15.1,9,20.1v11.1c-10.7-6.2-18-17.8-18-31.1c0-19.9,16.1-36,36-36c13.5,0,25.3,7.5,31.4,18.5
	c1.5-0.3,3-0.5,4.6-0.5c14.9,0,27,12.1,27,27C-299.5,353.4-307,363.4-317.5,367.1z M-367,350.6c2.5,0,4.5,2,4.5,4.5
	c0,2.5-2,4.5-4.5,4.5c-2.5,0-4.5-2-4.5-4.5C-371.5,352.7-369.5,350.6-367,350.6z M-367,368.6c2.5,0,4.5,2,4.5,4.5
	c0,2.5-2,4.5-4.5,4.5c-2.5,0-4.5-2-4.5-4.5C-371.5,370.7-369.5,368.6-367,368.6z M-349,359.6c2.5,0,4.5,2,4.5,4.5
	c0,2.5-2,4.5-4.5,4.5c-2.5,0-4.5-2-4.5-4.5C-353.5,361.7-351.5,359.6-349,359.6z M-349,377.6c2.5,0,4.5,2,4.5,4.5
	c0,2.5-2,4.5-4.5,4.5c-2.5,0-4.5-2-4.5-4.5C-353.5,379.7-351.5,377.6-349,377.6z M-331,350.6c2.5,0,4.5,2,4.5,4.5
	c0,2.5-2,4.5-4.5,4.5c-2.5,0-4.5-2-4.5-4.5C-335.5,352.7-333.5,350.6-331,350.6z M-331,368.6c2.5,0,4.5,2,4.5,4.5
	c0,2.5-2,4.5-4.5,4.5c-2.5,0-4.5-2-4.5-4.5C-335.5,370.7-333.5,368.6-331,368.6z"/>
</svg>
