<?xml version="1.0" encoding="utf-8"?>
<!-- Generator: Adobe Illustrator 19.1.0, SVG Export Plug-In . SVG Version: 6.00 Build 0)  -->
<svg version="1.1" id="Layer_1" xmlns="http://www.w3.org/2000/svg" xmlns:xlink="http://www.w3.org/1999/xlink" x="0px" y="0px"
	 viewBox="-399 288 100 100" style="enable-background:new -399 288 100 100;" xml:space="preserve">
<path d="M-303.5,368.9h-90.9c-2.5,0-4.5-2-4.5-4.5c0-2.5,2-4.5,4.5-4.5h90.9c2.5,0,4.5,2,4.5,4.5C-299,366.9-301,368.9-303.5,368.9z
	 M-303.5,350.7h-90.9c-2.5,0-4.5-2-4.5-4.5c0-2.5,2-4.5,4.5-4.5h90.9c2.5,0,4.5,2,4.5,4.5C-299,348.7-301,350.7-303.5,350.7z
	 M-326.3,323.5c-3.6,0-7,1.1-9.8,2.9c-2.8-12.1-13.6-21.1-26.5-21.1c-15.1,0-27.3,12.2-27.3,27.3h-9.1c0-20.1,16.3-36.4,36.4-36.4
	c13.6,0,25.5,7.5,31.7,18.6c1.5-0.3,3-0.5,4.6-0.5c11.9,0,21.9,7.6,25.7,18.2h-10C-313.7,327.1-319.5,323.5-326.3,323.5z
	 M-394.5,378h90.9c2.5,0,4.5,2,4.5,4.5c0,2.5-2,4.5-4.5,4.5h-90.9c-2.5,0-4.5-2-4.5-4.5C-399,380-397,378-394.5,378z"/>
</svg>
