<?xml version="1.0" encoding="utf-8"?>
<!-- Generator: Adobe Illustrator 19.1.0, SVG Export Plug-In . SVG Version: 6.00 Build 0)  -->
<svg version="1.1" id="Layer_1" xmlns="http://www.w3.org/2000/svg" xmlns:xlink="http://www.w3.org/1999/xlink" x="0px" y="0px"
	 viewBox="-399 288 100 100" style="enable-background:new -399 288 100 100;" xml:space="preserve">
<path d="M-304.5,368.4h-89.1c-2.5,0-4.5-2-4.5-4.5c0-2.5,2-4.5,4.5-4.5h89.1c2.5,0,4.5,2,4.5,4.5C-300,366.4-302,368.4-304.5,368.4z
	 M-304.5,350.6h-89.1c-2.5,0-4.5-2-4.5-4.5c0-2.5,2-4.5,4.5-4.5h89.1c2.5,0,4.5,2,4.5,4.5C-300,348.6-302,350.6-304.5,350.6z
	 M-326.7,323.8c-3.6,0-6.9,1.1-9.7,2.9c-2.7-11.8-13.3-20.7-26-20.7c-14.8,0-26.7,12-26.7,26.7h-8.9c0-19.7,16-35.6,35.6-35.6
	c13.4,0,25,7.4,31.1,18.3c1.5-0.3,3-0.5,4.5-0.5c11.6,0,21.5,7.4,25.2,17.8h-9.8C-314.4,327.4-320.1,323.8-326.7,323.8z
	 M-393.5,377.3h89.1c2.5,0,4.5,2,4.5,4.5c0,2.5-2,4.5-4.5,4.5h-89.1c-2.5,0-4.5-2-4.5-4.5C-398,379.3-396,377.3-393.5,377.3z"/>
</svg>
